<svg width="796" height="780" viewBox="0 0 796 780" fill="none" xmlns="http://www.w3.org/2000/svg">
<path fill-rule="evenodd" clip-rule="evenodd" d="M133.162 178.117L136.41 388.617C136.41 388.617 136.61 597.868 363.75 641.217C368.907 639.557 337.768 592.637 337.768 592.637C337.768 592.637 188.968 568.547 175.382 388.616C174.234 268.273 175.382 174.876 175.382 174.876L133.162 178.117Z" fill="#CC9932"/>
<path fill-rule="evenodd" clip-rule="evenodd" d="M191.621 168.019L194.166 353.67C194.166 353.67 191.775 538.22 369.766 576.45C373.808 574.99 346.866 533.61 346.866 533.61C346.866 533.61 235.348 512.36 224.706 353.67C223.806 247.535 224.706 165.163 224.706 165.163L191.621 168.019Z" fill="#CC9932"/>
<path fill-rule="evenodd" clip-rule="evenodd" d="M600.836 168.019L598.426 353.67C598.426 353.67 600.686 538.22 432.308 576.45C428.485 574.99 453.975 533.61 453.975 533.61C453.975 533.61 559.466 512.36 569.536 353.67C570.386 247.535 569.536 165.163 569.536 165.163L600.836 168.019Z" fill="#CC9932"/>
<path fill-rule="evenodd" clip-rule="evenodd" d="M659.296 174.879L656.056 385.379C656.056 385.379 659.096 594.639 432.556 637.979C427.412 636.329 457.916 590.969 457.916 590.969C457.916 590.969 603.632 565.309 617.182 385.379C618.322 265.037 617.182 171.639 617.182 171.639L659.296 174.879Z" fill="#CC9932"/>
<path fill-rule="evenodd" clip-rule="evenodd" d="M332.738 590.97C332.738 590.97 357.388 471.68 246.832 413.056C159.442 362.879 76.8597 396.456 42.2257 426.011C43.1897 425.776 65.3397 720.42 405.97 740.14C599.476 732.26 733.726 598.52 756.726 422.772C756.556 421.4 616.586 326.718 506.646 451.92C461.619 509.44 462.723 547.34 461.182 591.17C459.64 593.53 431.939 638.06 431.939 638.06C431.939 638.06 392.288 504.08 493.656 409.818C595.024 315.556 737.086 344.991 795.696 409.818C798.586 411.618 788.146 737.28 405.97 779.01C364.791 778.97 61.1857 769.43 0.00471227 406.58C-0.851288 407.56 115.014 303.346 266.318 377.433C266.318 377.433 415.955 455.5 363.75 642.99C365.082 645.82 332.738 590.97 332.738 590.97Z" fill="#CC9932"/>
<path fill-rule="evenodd" clip-rule="evenodd" d="M5.78992 157.348C5.78992 157.348 180.325 144.592 205.728 136.662C231.131 128.732 298.593 108.407 298.593 108.407L339.693 45.3389H432.557L475.695 107.9L551.306 131.614L782.706 152.3V184.591H3.25293L5.78992 157.348Z" fill="#CC9932"/>
<path fill-rule="evenodd" clip-rule="evenodd" d="M68.2056 155.448L77.9485 142.494H94.1866L103.931 152.209" fill="#CC9932"/>
<path fill-rule="evenodd" clip-rule="evenodd" d="M120.171 152.209L129.914 139.255H146.153L155.896 148.971" fill="#CC9932"/>
<path fill-rule="evenodd" clip-rule="evenodd" d="M175.382 145.732L185.126 132.778H201.364L211.107 142.494" fill="#CC9932"/>
<path fill-rule="evenodd" clip-rule="evenodd" d="M726.825 152.209L717.085 139.255H700.845L691.105 148.971" fill="#CC9932"/>
<path fill-rule="evenodd" clip-rule="evenodd" d="M681.366 148.972L671.616 136.018H655.376L645.636 145.733" fill="#CC9932"/>
<path fill-rule="evenodd" clip-rule="evenodd" d="M629.396 145.732L619.656 132.778H603.416L593.676 142.494" fill="#CC9932"/>
<path fill-rule="evenodd" clip-rule="evenodd" d="M610.575 139.255L600.835 126.301H584.595L574.855 136.017" fill="#CC9932"/>
<path fill-rule="evenodd" clip-rule="evenodd" d="M354.005 48.5768C354.005 48.5768 343.062 42.4768 350.757 32.3848C358.452 22.2928 357.257 22.6688 357.257 22.6688C357.257 22.6688 336.804 26.0148 337.77 48.5768C353.339 48.0118 354.005 48.5768 354.005 48.5768Z" fill="#CC9932"/>
<path fill-rule="evenodd" clip-rule="evenodd" d="M419.046 48.5768C419.046 48.5768 429.932 42.4768 422.276 32.3848C414.62 22.2928 415.815 22.6688 415.815 22.6688C415.815 22.6688 436.162 26.0148 435.2 48.5768C419.706 48.0118 419.046 48.5768 419.046 48.5768Z" fill="#CC9932"/>
<path fill-rule="evenodd" clip-rule="evenodd" d="M360.506 48.577L367.006 38.862L373.506 35.623L383.236 0L392.98 35.623L399.48 38.862L405.98 48.577H360.506ZM383.206 19.413C385.772 19.4188 388.279 20.185 390.41 21.615C392.542 23.045 394.201 25.0746 395.179 27.4473C396.157 29.82 396.41 32.4294 395.906 34.9457C395.402 37.4621 394.163 39.7726 392.346 41.5852C390.529 43.3978 388.216 44.6313 385.698 45.1298C383.181 45.6282 380.572 45.3693 378.201 44.3857C375.831 43.4022 373.805 41.738 372.38 39.6036C370.955 37.4693 370.195 34.9604 370.195 32.394C370.2 28.9476 371.573 25.6442 374.013 23.21C376.453 20.7758 379.759 19.4101 383.206 19.413Z" fill="#CC9932"/>
<path fill-rule="evenodd" clip-rule="evenodd" d="M138.679 324.057C138.679 324.057 134.393 265.164 80.3127 278.808C56.7257 284.989 55.7837 305.888 56.3937 310.788C57.2867 317.955 63.9227 334.505 85.9467 331.13C93.0537 330.53 97.5567 322.854 95.9137 314.818C94.2707 306.782 88.9287 303.518 83.8267 308.451C78.7247 313.384 84.3267 299.708 92.6707 298.451C101.015 297.194 110.442 304.367 110.212 318.685C109.982 333.003 95.1407 352.342 70.5687 346.817C45.9967 341.292 37.9687 324.653 38.0917 301.478C38.2147 278.303 56.8547 256.758 88.0057 256.14C119.157 255.522 153.245 282.916 154.8 318.348C156.355 353.78 145.683 366.227 145.683 366.227L135.936 359.719C135.936 359.719 139.317 335.711 138.679 324.057Z" fill="#CC9932"/>
<path fill-rule="evenodd" clip-rule="evenodd" d="M653.136 324.936C653.136 324.936 657.376 265.727 710.946 279.444C734.306 285.658 735.246 306.669 734.636 311.595C733.756 318.795 727.186 335.439 705.366 332.046C698.326 331.446 693.866 323.726 695.496 315.646C697.126 307.566 702.416 304.286 707.466 309.246C712.516 314.206 706.976 300.456 698.706 299.192C690.436 297.928 681.106 305.139 681.326 319.533C681.546 333.927 696.256 353.37 720.596 347.816C744.936 342.262 752.886 325.534 752.766 302.235C752.646 278.936 734.186 257.275 703.326 256.655C672.466 256.035 638.706 283.574 637.166 319.195C635.626 354.816 646.196 367.33 646.196 367.33L655.846 360.787C655.846 360.787 652.496 336.652 653.136 324.936Z" fill="#CC9932"/>
</svg>
